<svg width="982" height="811" viewBox="0 0 982 811" fill="none" xmlns="http://www.w3.org/2000/svg">
<path d="M981.263 0L981.367 811H890.662L890.558 115.945L878.99 146.443H872.154L860.06 115.945L860.164 811H769.722L769.618 0H860.06L872.154 34.9675H878.99L890.558 0H981.263Z" fill="white"/>
<path d="M681.53 811L679.952 153.542H663.914L662.337 629.448H579.519C581.272 600.703 584.865 123.482 590.299 93.3343C595.732 63.0116 600.727 39.8752 605.285 23.9251L611.858 0H736.479C738.407 6.30993 740.86 15.0737 743.84 26.2914C746.82 37.509 751.202 59.0679 756.986 90.9681C762.77 122.693 766.714 782.255 768.817 811H681.53ZM667.858 88.339L665.755 129.353H678.112L676.271 88.339H667.858Z" fill="white"/>
<path d="M480.818 128.565L480.254 629.448H389.812L390.375 0H485.813C517.187 0 540.236 5.17064 554.959 15.5119C569.682 25.6779 577.044 43.3808 577.044 68.6205C577.044 87.7255 575.82 119.45 563.376 128.565C573.892 147.319 576.305 601.053 581.738 629.448H495.24C493.838 611.745 491.948 148.371 488.442 134.875L486.602 128.565H480.818ZM480.818 107.269H488.442C490.545 107.269 492.298 106.568 493.7 105.165C495.103 103.763 495.804 101.923 495.804 99.6443V83.8695C495.804 81.5909 495.103 79.8381 493.7 78.6112C492.298 77.209 490.545 76.5079 488.442 76.5079H480.818V107.269Z" fill="white"/>
<path d="M280.541 131.72V629.448H190.099V0H280.541V82.0291H286.325L297.631 0H389.65L366.19 119.026L389.65 629.448H297.105L286.325 131.72H280.541Z" fill="white"/>
<path d="M102.01 629.448L100.433 153.542H84.3953L82.8178 629.448H0C1.75276 600.703 5.34591 123.482 10.7795 93.3343C16.213 63.0116 21.2084 39.8752 25.7655 23.9251L32.3384 0H156.959C158.887 6.30993 161.341 15.0737 164.321 26.2914C167.301 37.509 171.683 59.0679 177.467 90.9681C183.251 122.693 187.194 600.703 189.298 629.448H102.01ZM88.339 88.339L86.2357 129.354H98.5926L96.7522 88.339H88.339Z" fill="white"/>
</svg>
