<svg width="840" height="908" viewBox="0 0 840 908" fill="none" xmlns="http://www.w3.org/2000/svg">
<path d="M693.813 2.94098H759.889L773.492 54.235V2.94098H840V1376.51H773.492L762.048 124.702V1376.51H693.813V2.94098Z" fill="white"/>
<path d="M221.799 0.450989H239.722C265.634 0.450989 284.492 7.50599 296.297 21.616C308.101 35.726 314.003 57.887 314.003 88.099C314.003 118.311 308.029 1493.31 296.081 1508.09C284.276 1522.7 265.49 1530 239.722 1530H221.799C196.031 1530 177.173 1522.7 165.225 1508.09C153.277 1493.31 147.302 118.311 147.302 88.099C147.302 57.887 153.205 35.726 165.009 21.616C176.957 7.50599 195.887 0.450989 221.799 0.450989ZM224.607 82.372V1463.77C224.607 1465.92 225.11 1467.67 226.118 1468.99C227.27 1470.32 228.709 1470.99 230.437 1470.99C232.308 1470.99 233.82 1470.32 234.971 1468.99C236.267 1467.67 236.915 1465.92 236.915 1463.77V82.372C236.915 80.38 236.267 78.72 234.971 77.392C233.82 76.064 232.308 75.4 230.437 75.4C228.709 75.4 227.27 76.064 226.118 77.392C225.11 78.72 224.607 80.38 224.607 82.372Z" fill="white"/>
<path d="M600.767 0H618.69C644.602 0 663.46 7.055 675.264 21.165C687.068 35.275 692.971 57.436 692.971 87.648C692.971 117.86 686.996 1492.86 675.048 1507.64C663.244 1522.24 644.458 1529.55 618.69 1529.55H600.767C574.999 1529.55 556.141 1522.24 544.193 1507.64C532.244 1492.86 526.27 117.86 526.27 87.648C526.27 57.436 532.172 35.275 543.977 21.165C555.925 7.055 574.855 0 600.767 0ZM603.574 81.921V1463.31C603.574 1465.47 604.078 1467.22 605.086 1468.54C606.237 1469.87 607.677 1470.54 609.404 1470.54C611.276 1470.54 612.787 1469.87 613.939 1468.54C615.235 1467.22 615.882 1465.47 615.882 1463.31V81.921C615.882 79.929 615.235 78.269 613.939 76.941C612.787 75.613 611.276 74.949 609.404 74.949C607.677 74.949 606.237 75.613 605.086 76.941C604.078 78.269 603.574 79.929 603.574 81.921Z" fill="white"/>
<path d="M451.293 1339.51V2.94098H525.574V1339.51H451.293Z" fill="white"/>
<path d="M314.428 94.4V2.94098H447.443V94.4L430.011 78.5L421.099 1436.51H340.34L335.485 78.5L314.428 94.4Z" fill="white"/>
<path d="M0 2.94098H66.0756L79.6794 54.235V2.94098H146.187V1328.51H79.6794L68.235 124.702V1328.51H0V2.94098Z" fill="white"/>
</svg>
