<svg width="31" height="31" viewBox="0 0 31 31" fill="none" xmlns="http://www.w3.org/2000/svg">
<path d="M15.5 2.79337C19.6385 2.79337 20.1293 2.80888 21.7633 2.88382C23.4528 2.96134 25.1927 3.34636 26.4236 4.57767C27.6662 5.8206 28.0395 7.54417 28.117 9.23932C28.1919 10.8737 28.2074 11.3647 28.2074 15.5044C28.2074 19.6441 28.1919 20.135 28.117 21.7694C28.0408 23.4504 27.6468 25.2075 26.4236 26.4311C25.181 27.674 23.4592 28.0474 21.7633 28.1249C20.1293 28.1999 19.6385 28.2154 15.5 28.2154C11.3615 28.2154 10.8707 28.1999 9.23671 28.1249C7.56917 28.0487 5.78925 27.6456 4.57638 26.4311C3.34025 25.1946 2.9605 23.4543 2.883 21.7694C2.80808 20.135 2.79258 19.6441 2.79258 15.5044C2.79258 11.3647 2.80808 10.8737 2.883 9.23932C2.95921 7.56485 3.35704 5.79735 4.57638 4.57767C5.81637 3.33732 7.54592 2.96134 9.23671 2.88382C10.8707 2.80888 11.3615 2.79337 15.5 2.79337ZM15.5 0C11.2905 0 10.7622 0.0180884 9.10883 0.0930263C6.71279 0.202849 4.33354 0.869537 2.60142 2.60215C0.862833 4.34123 0.202792 6.71598 0.093 9.11141C0.0180833 10.7652 0 11.2936 0 15.5044C0 19.7151 0.0180833 20.2436 0.093 21.8974C0.202792 24.2915 0.871875 26.6779 2.60142 28.4066C4.33871 30.1444 6.71667 30.8059 9.10883 30.9157C10.7622 30.9907 11.2905 31.0088 15.5 31.0088C19.7095 31.0088 20.2378 30.9907 21.8912 30.9157C24.2859 30.8059 26.6677 30.1379 28.3986 28.4066C30.1385 26.6662 30.7972 24.2928 30.907 21.8974C30.9819 20.2436 31 19.7151 31 15.5044C31 11.2936 30.9819 10.7652 30.907 9.11141C30.7972 6.71469 30.1294 4.33347 28.3986 2.60215C26.6639 0.866953 24.2795 0.201557 21.8912 0.0930263C20.2378 0.0180884 19.7095 0 15.5 0Z" fill="white"/>
<path d="M15.5 7.54291C11.1045 7.54291 7.54075 11.1076 7.54075 15.5044C7.54075 19.9012 11.1045 23.4659 15.5 23.4659C19.8955 23.4659 23.4593 19.9012 23.4593 15.5044C23.4593 11.1076 19.8955 7.54291 15.5 7.54291ZM15.5 20.6725C12.6467 20.6725 10.3333 18.3585 10.3333 15.5044C10.3333 12.6503 12.6467 10.3363 15.5 10.3363C18.3533 10.3363 20.6667 12.6503 20.6667 15.5044C20.6667 18.3585 18.3533 20.6725 15.5 20.6725Z" fill="white"/>
<path d="M23.7744 9.08818C24.8017 9.08818 25.6344 8.25519 25.6344 7.22765C25.6344 6.20011 24.8017 5.36713 23.7744 5.36713C22.7472 5.36713 21.9144 6.20011 21.9144 7.22765C21.9144 8.25519 22.7472 9.08818 23.7744 9.08818Z" fill="white"/>
</svg>
