<svg width="26" height="26" viewBox="0 0 26 26" fill="none" xmlns="http://www.w3.org/2000/svg">
<path fill-rule="evenodd" clip-rule="evenodd" d="M7.55023 2.67474C7.6257 2.59907 7.71536 2.53904 7.81407 2.49808C7.91278 2.45712 8.0186 2.43604 8.12548 2.43604C8.23235 2.43604 8.33817 2.45712 8.43688 2.49808C8.53559 2.53904 8.62525 2.59907 8.70073 2.67474L18.4507 12.4247C18.5264 12.5002 18.5864 12.5899 18.6274 12.6886C18.6683 12.7873 18.6894 12.8931 18.6894 13C18.6894 13.1069 18.6683 13.2127 18.6274 13.3114C18.5864 13.4101 18.5264 13.4998 18.4507 13.5752L8.70073 23.3252C8.54816 23.4778 8.34124 23.5635 8.12548 23.5635C7.90971 23.5635 7.70279 23.4778 7.55023 23.3252C7.39766 23.1727 7.31195 22.9657 7.31195 22.75C7.31195 22.5342 7.39766 22.3273 7.55023 22.1747L16.7266 13L7.55023 3.82524C7.47456 3.74976 7.41453 3.6601 7.37357 3.56139C7.33261 3.46268 7.31152 3.35686 7.31152 3.24999C7.31152 3.14312 7.33261 3.03729 7.37357 2.93858C7.41453 2.83987 7.47456 2.75021 7.55023 2.67474Z" fill="#292F36"/>
</svg>
