<svg width="281" height="274" viewBox="0 0 281 274" fill="none" xmlns="http://www.w3.org/2000/svg">
<path d="M122.59 6.40768C133.048 -2.00532 147.952 -2.00532 158.41 6.40768L187.558 29.8554C190.967 32.5974 194.96 34.5202 199.229 35.4755L235.734 43.645C248.833 46.5762 258.125 58.2286 258.068 71.6507L257.91 109.059C257.891 113.434 258.877 117.754 260.792 121.687L277.166 155.322C283.04 167.39 279.724 181.921 269.195 190.245L239.849 213.444C236.417 216.157 233.654 219.622 231.773 223.571L215.685 257.344C209.913 269.461 196.484 275.928 183.412 272.886L146.976 264.407C142.716 263.416 138.284 263.416 134.024 264.407L97.5884 272.886C84.5155 275.928 71.0874 269.461 65.3151 257.344L49.2272 223.571C47.3459 219.622 44.5829 216.157 41.1512 213.444L11.8052 190.245C1.27597 181.921 -2.04051 167.39 3.83437 155.322L20.2082 121.687C22.1229 117.754 23.109 113.434 23.0905 109.059L22.9318 71.6507C22.8749 58.2286 32.1675 46.5762 45.2656 43.645L81.7714 35.4755C86.0404 34.5202 90.033 32.5974 93.4416 29.8555L122.59 6.40768Z" fill="#488FD0"/>
</svg>
