<svg width="840" height="908" viewBox="0 0 840 908" fill="none" xmlns="http://www.w3.org/2000/svg">
<path d="M693.813 2.17017H759.889L773.492 40.0205V2.17017H840V1015.74H773.492L762.048 92.0187V1015.74H693.813V2.17017Z" fill="white"/>
<path d="M221.799 0.332788H239.722C265.634 0.332788 284.492 5.53873 296.297 15.9506C308.101 26.3625 314.003 42.7153 314.003 65.009C314.003 87.3027 308.029 1101.93 296.081 1112.83C284.276 1123.61 265.49 1129 239.722 1129H221.799C196.031 1129 177.173 1123.61 165.225 1112.83C153.277 1101.93 147.302 87.3027 147.302 65.009C147.302 42.7153 153.205 26.3625 165.009 15.9506C176.957 5.53873 195.887 0.332788 221.799 0.332788ZM224.607 60.783V1080.13C224.607 1081.72 225.11 1083 226.118 1083.98C227.27 1084.96 228.709 1085.45 230.437 1085.45C232.308 1085.45 233.82 1084.96 234.971 1083.98C236.267 1083 236.915 1081.72 236.915 1080.13V60.783C236.915 59.3131 236.267 58.0882 234.971 57.1082C233.82 56.1283 232.308 55.6383 230.437 55.6383C228.709 55.6383 227.27 56.1283 226.118 57.1082C225.11 58.0882 224.607 59.3131 224.607 60.783Z" fill="white"/>
<path d="M600.767 0H618.689C644.602 0 663.46 5.20594 675.264 15.6178C687.068 26.0297 692.971 42.3825 692.971 64.6762C692.971 86.9699 686.996 1101.6 675.048 1112.5C663.244 1123.28 644.458 1128.67 618.689 1128.67H600.767C574.999 1128.67 556.141 1123.28 544.192 1112.5C532.244 1101.6 526.27 86.9699 526.27 64.6762C526.27 42.3825 532.172 26.0297 543.977 15.6178C555.925 5.20594 574.855 0 600.767 0ZM603.574 60.4502V1079.79C603.574 1081.38 604.078 1082.67 605.086 1083.65C606.237 1084.63 607.677 1085.12 609.404 1085.12C611.276 1085.12 612.787 1084.63 613.939 1083.65C615.235 1082.67 615.882 1081.38 615.882 1079.79V60.4502C615.882 58.9803 615.235 57.7554 613.939 56.7754C612.787 55.7955 611.276 55.3055 609.404 55.3055C607.677 55.3055 606.237 55.7955 605.086 56.7754C604.078 57.7554 603.574 58.9803 603.574 60.4502Z" fill="white"/>
<path d="M451.293 988.436V2.17017H525.574V988.436H451.293Z" fill="white"/>
<path d="M314.428 69.6586V2.17017H447.443V69.6586L430.011 57.9258L421.099 1060.01H340.34L335.485 57.9258L314.428 69.6586Z" fill="white"/>
<path d="M0 2.17017H66.0756L79.6794 40.0205V2.17017H146.187V980.319H79.6794L68.235 92.0187V980.319H0V2.17017Z" fill="white"/>
</svg>
