<svg width="67" height="67" viewBox="0 0 67 67" fill="none" xmlns="http://www.w3.org/2000/svg">
<mask id="mask0_0_61" style="mask-type:alpha" maskUnits="userSpaceOnUse" x="2" y="1" width="63" height="60">
<path d="M29.3855 2.98936C31.8389 1.20685 35.1611 1.20685 37.6145 2.98936L61.2459 20.1586C63.6993 21.9411 64.7259 25.1007 63.7888 27.9848L54.7624 55.7652C53.8253 58.6493 51.1376 60.6021 48.105 60.6021H18.895C15.8624 60.6021 13.1747 58.6493 12.2376 55.7652L3.2112 27.9848C2.27408 25.1007 3.30069 21.9411 5.7541 20.1586L29.3855 2.98936Z" fill="#D9D9D9"/>
</mask>
<g mask="url(#mask0_0_61)">
<path d="M-55 46.1336C-55 46.1336 25.0396 -23.686 68.5 3.1336C71.9577 5.2674 77 9.1336 77 9.1336C-7.5 13.4551 -36 80.1336 -36 80.1336L-55 46.1336Z" fill="#D04848"/>
<path d="M-36 71.4999C-36 71.4999 50.0396 -11.6861 93.5 15.1335C96.9577 17.2673 102 21.1335 102 21.1335C17.5 25.455 -11 92.1335 -11 92.1335L-36 71.4999Z" fill="#D04848"/>
<path d="M0 72.1336C0 72.1336 80.0396 2.31398 123.5 29.1336C126.958 31.2674 132 35.1336 132 35.1336C47.5 39.4551 19 106.134 19 106.134L0 72.1336Z" fill="#D04848"/>
</g>
</svg>
